# xmcd
#
# Track frame offsets:
#	150
#	21302
#	48852
#	82000
#	104727
#	134462
#	158315
#	176620
#	207550
#
# Disc length: 2968 seconds
#
# Revision: 1
# Processed by: cddbd v1.5.1PL0 Copyright (c) Steve Scherf et al.
# Submitted via: CDex 1.50Beta5
#
DISCID=770b9609
DTITLE=Public Image Ltd. - METAL TAPE
DYEAR=1900
DGENRE=
TTITLE0=Fodderstompf
TTITLE1=Careering
TTITLE2=Chant
TTITLE3=Annalisa
TTITLE4=Poptones
TTITLE5=Attack/Low Life
TTITLE6=Public Image
TTITLE7=Swan Lake
TTITLE8=Memories
EXTD=
EXTT0=
EXTT1=
EXTT2=
EXTT3=
EXTT4=
EXTT5=
EXTT6=
EXTT7=
EXTT8=
PLAYORDER=
